<?xml version="1.0" encoding="iso-8859-1"?>
<!-- Uploaded to: SVG Repo, www.svgrepo.com, Generator: SVG Repo Mixer Tools -->
<!DOCTYPE svg PUBLIC "-//W3C//DTD SVG 1.1//EN" "http://www.w3.org/Graphics/SVG/1.1/DTD/svg11.dtd">
<svg fill="#000000" version="1.1" id="Capa_1" xmlns="http://www.w3.org/2000/svg" xmlns:xlink="http://www.w3.org/1999/xlink" 
	 width="800px" height="800px" viewBox="0 0 537.66 537.66"
	 xml:space="preserve">
<g>
	<g>
		<path d="M526.375,175.442H249.458l101.781-115.23c2.939-5.875-0.006-10.64-6.574-10.64H194.735
			c-15.012,0.003-34.74,30.233-44.538,41.188C132.96,110.028,3.146,254.326,2.204,256.208c-2.938,5.875-2.938,15.404,0,21.279
			L177.52,477.449c2.938,5.875,10.646,10.64,17.215,10.64h149.931c6.57,0,9.514-4.765,6.576-10.64l-98.746-114.347h273.879
			c6.234,0,11.285-5.052,11.285-11.285v-165.09C537.66,180.494,532.609,175.442,526.375,175.442z"/>
	</g>
</g>
</svg>